<?xml version="1.0" standalone="no"?>
<!DOCTYPE svg PUBLIC "-//W3C//DTD SVG 20010904//EN"
 "http://www.w3.org/TR/2001/REC-SVG-20010904/DTD/svg10.dtd">
<svg version="1.0" xmlns="http://www.w3.org/2000/svg"
 width="500.000000pt" height="500.000000pt" viewBox="0 0 500.000000 500.000000"
 preserveAspectRatio="xMidYMid meet">

<g transform="translate(0.000000,500.000000) scale(0.100000,-0.100000)"
fill="#000000" stroke="none">
<path d="M3060 3541 c0 -4 13 -25 29 -45 29 -36 47 -81 71 -174 11 -45 36 -63
83 -61 19 1 155 -31 196 -46 9 -4 7 -10 -9 -23 -13 -10 -21 -24 -19 -31 3 -8
14 -4 33 14 26 24 31 25 60 14 17 -7 36 -16 42 -21 7 -5 45 4 95 22 46 17 106
35 132 40 54 11 124 0 139 -22 5 -7 7 -46 5 -86 -3 -62 -11 -87 -51 -168 -43
-87 -46 -97 -37 -132 6 -20 11 -53 11 -72 0 -33 -1 -33 -14 -14 -11 16 -22 20
-47 16 l-32 -5 38 -23 c21 -13 42 -21 46 -19 4 3 9 -10 11 -28 3 -17 9 -41 13
-51 7 -16 5 -18 -11 -12 -34 14 -94 19 -94 9 0 -6 15 -21 34 -34 30 -21 32
-24 18 -35 -15 -11 -12 -13 18 -21 l35 -10 -49 -7 c-31 -5 -52 -4 -59 3 -6 6
-17 11 -25 11 -9 0 -3 -13 17 -35 17 -20 31 -38 31 -40 0 -2 -19 -9 -42 -15
-96 -24 -161 -57 -113 -57 8 0 15 3 15 7 0 3 8 6 18 6 9 0 36 4 59 8 37 7 42
5 45 -14 5 -33 23 -28 26 8 3 27 7 32 28 32 14 0 27 -7 30 -15 10 -25 27 -17
20 10 -7 27 8 35 18 9 19 -49 2 -92 -59 -150 -42 -39 -43 -42 -35 -80 5 -21 9
-48 9 -59 0 -18 -1 -18 -7 -2 -7 17 -8 17 -27 -1 -11 -10 -26 -17 -32 -15 -6
2 -16 -5 -22 -15 -9 -17 -7 -22 19 -31 18 -6 30 -6 30 0 0 5 9 9 20 9 12 0 21
7 21 18 1 9 5 -3 9 -28 11 -68 4 -75 -65 -72 -31 2 -65 -7 -65 -17 0 -6 10
-12 23 -14 12 -2 -35 -5 -105 -6 l-127 -1 -6 54 c-12 96 20 235 71 304 9 12
12 22 7 22 -18 0 -52 -45 -71 -96 -24 -59 -46 -198 -40 -248 5 -43 -2 -45
-132 -47 -92 0 -144 -9 -124 -21 5 -3 191 -6 414 -6 223 0 419 -4 435 -9 46
-14 43 -44 -20 -189 -31 -71 -88 -205 -127 -299 -92 -225 -124 -282 -163 -294
-55 -17 -820 -61 -1057 -61 -135 0 -150 2 -168 20 -26 26 -25 43 6 156 14 52
23 98 20 103 -4 5 -3 11 2 13 7 3 79 193 139 363 39 113 68 150 133 172 30 11
69 18 86 17 20 -1 31 3 31 12 0 7 -5 10 -10 7 -6 -3 -40 -7 -77 -9 -44 -1 -77
-8 -94 -19 -17 -11 -48 -62 -88 -144 l-61 -126 -12 95 c-26 200 -68 356 -131
481 -24 49 -44 93 -44 99 0 6 14 24 32 40 23 22 29 33 21 41 -11 11 -71 -13
-85 -35 -12 -17 -9 -2 7 43 13 39 13 42 -2 39 -10 -2 -22 -13 -28 -25 -11 -21
-12 -21 -58 18 -26 23 -47 36 -47 31 0 -5 7 -15 15 -22 8 -6 36 -46 62 -89 26
-42 54 -85 60 -96 83 -132 142 -343 167 -592 l13 -135 -28 -86 c-29 -91 -40
-99 -71 -59 -14 18 -28 22 -85 24 -92 2 -175 13 -191 26 -9 7 -11 22 -7 43 13
71 -72 180 -199 255 -154 91 -217 131 -257 164 -22 19 -46 32 -51 28 -6 -3 -8
-1 -5 4 7 12 -27 46 -49 49 -20 3 15 -45 82 -111 48 -48 182 -133 261 -164 17
-7 46 -24 64 -37 l33 -24 -31 0 c-18 0 -33 6 -37 15 -3 8 -12 15 -20 15 -22 0
-66 22 -61 30 2 4 -7 5 -20 2 -15 -2 -25 0 -25 8 0 7 -8 9 -19 5 -25 -8 -77
19 -163 84 -37 27 -70 47 -72 42 -3 -4 39 -49 92 -101 l96 -95 -49 -3 c-29 -2
-51 1 -53 7 -2 6 -12 11 -22 11 -9 0 -23 7 -30 15 -13 15 -61 21 -58 8 0 -5
-2 -16 -6 -25 -6 -13 -17 -15 -59 -11 -32 3 -94 -3 -162 -16 -180 -34 -485
-28 -485 9 0 4 -9 6 -20 3 -23 -6 -60 21 -60 44 0 7 -7 13 -16 13 -11 0 -14 8
-12 26 3 30 12 36 78 55 62 19 186 114 238 182 34 46 57 64 117 93 89 43 173
112 153 125 -10 6 -8 9 7 10 11 0 14 3 7 6 -7 3 -30 -11 -52 -31 -22 -20 -70
-49 -106 -66 -54 -24 -83 -48 -151 -120 -99 -104 -150 -141 -240 -171 -56 -18
-67 -26 -79 -55 -8 -18 -14 -36 -14 -39 0 -3 22 -27 49 -55 32 -32 57 -50 73
-50 13 0 29 -5 36 -12 20 -20 327 -23 458 -5 92 13 171 15 438 10 240 -5 326
-9 330 -18 3 -8 -12 -14 -46 -18 -63 -8 -78 -20 -78 -65 0 -29 8 -43 48 -79
85 -80 421 -353 434 -353 7 0 22 -7 32 -15 34 -26 433 -18 1024 19 162 11 218
18 237 30 33 22 70 79 105 163 15 37 58 140 95 228 60 143 139 344 151 385 12
43 -52 69 -172 70 l-71 0 -6 93 c-3 50 -12 111 -20 133 l-15 42 40 38 c22 22
46 51 54 67 13 25 19 27 74 27 47 0 60 3 60 15 0 16 -16 21 -22 7 -4 -11 -99
0 -98 11 2 56 -1 69 -20 74 -22 6 -26 18 -10 28 6 3 10 15 10 25 0 12 12 22
35 30 48 16 56 33 12 25 -33 -6 -35 -5 -42 24 -3 17 -11 33 -16 36 -5 4 -9 43
-10 88 0 45 -4 91 -8 102 -6 14 1 37 24 80 18 33 40 84 49 114 18 61 21 173 6
201 -27 51 -157 54 -284 5 -80 -30 -92 -32 -115 -20 -49 24 -206 74 -273 85
l-66 12 -11 45 c-15 59 -57 141 -89 176 -26 27 -42 34 -42 18z m768 -1061
c-11 -18 -28 -27 -28 -16 0 2 -3 11 -6 20 -5 12 0 16 20 16 24 0 25 -2 14 -20z
m-1711 -974 c-7 -41 22 -93 55 -100 64 -13 99 -18 161 -23 53 -4 73 -10 90
-27 13 -13 29 -25 37 -28 11 -3 9 -19 -8 -84 -12 -44 -22 -90 -22 -102 0 -18
-14 -11 -92 51 -182 143 -343 283 -346 300 -8 38 5 47 69 47 l62 0 -6 -34z"/>
<path d="M2060 1464 c0 -19 304 -258 320 -252 6 2 -50 49 -123 106 -72 56
-147 114 -164 128 -18 15 -33 23 -33 18z"/>
<path d="M2901 3483 c-37 -41 -92 -136 -106 -180 -4 -16 -2 -23 7 -23 7 0 30
35 50 78 20 42 57 98 81 124 35 37 40 46 24 45 -10 -1 -36 -20 -56 -44z"/>
<path d="M3018 3463 c7 -3 16 -2 19 1 4 3 -2 6 -13 5 -11 0 -14 -3 -6 -6z"/>
<path d="M2940 3420 c-12 -16 -19 -30 -16 -30 2 0 14 14 26 30 12 17 19 30 16
30 -2 0 -14 -13 -26 -30z"/>
<path d="M3058 3410 c9 -21 18 -35 20 -30 3 9 -25 70 -33 70 -2 0 4 -18 13
-40z"/>
<path d="M3045 3340 c-3 -5 1 -10 9 -10 9 0 16 5 16 10 0 6 -4 10 -9 10 -6 0
-13 -4 -16 -10z"/>
<path d="M3085 3325 c7 -31 12 -41 19 -34 2 2 -3 18 -11 34 l-14 30 6 -30z"/>
<path d="M2550 3241 c5 -11 10 -28 10 -38 0 -31 -39 -97 -65 -111 -31 -16 -32
-30 -2 -41 12 -5 33 -20 45 -34 l24 -25 -41 -61 c-23 -33 -41 -66 -41 -73 0
-8 -5 -19 -11 -25 -14 -14 -13 -117 1 -142 12 -23 4 -31 -33 -31 -19 0 -52 16
-95 47 -197 140 -470 174 -654 82 -31 -16 -59 -33 -63 -39 -13 -21 -57 -10
-89 23 -25 25 -36 48 -49 110 -30 138 -75 200 -181 253 -69 34 -78 36 -147 31
-41 -2 -87 -10 -104 -17 -27 -11 -28 -13 -11 -19 14 -5 16 -10 8 -15 -18 -11
-14 -36 6 -36 20 0 62 27 62 40 0 5 -12 11 -27 13 -16 2 8 5 52 5 61 1 90 -3
125 -19 l45 -21 -29 -15 c-37 -20 -19 -33 45 -33 31 0 51 -6 62 -18 30 -33 63
-133 38 -118 -4 3 -16 -2 -24 -12 -18 -19 -13 -63 7 -61 33 4 45 -4 60 -45 9
-24 26 -52 36 -61 15 -14 17 -21 9 -32 -9 -10 -8 -17 1 -28 15 -18 -1 -20 -18
-3 -11 11 -14 7 -27 -38 -2 -6 1 -16 7 -22 7 -7 6 -10 -6 -8 -24 3 -93 74
-112 114 -9 19 -29 86 -45 150 -33 133 -50 162 -105 180 -91 32 -196 -8 -232
-86 -9 -21 -17 -38 -18 -40 -1 -2 -18 0 -37 3 -29 6 -37 12 -40 34 -2 14 -5
-2 -6 -37 -1 -78 17 -126 59 -147 42 -22 95 -13 116 20 18 27 11 47 -30 82
-34 30 -33 56 7 99 54 59 164 67 212 14 9 -10 31 -70 47 -132 37 -143 63 -200
122 -265 l48 -53 -16 -47 c-8 -27 -22 -77 -30 -112 -14 -59 -14 -66 2 -77 26
-21 29 -18 36 43 25 216 140 380 303 435 96 32 296 35 293 4 -1 -4 14 -17 32
-28 44 -27 45 -28 28 -38 -13 -8 -12 -10 3 -10 10 0 15 -4 12 -10 -3 -5 1 -10
9 -10 9 0 15 -5 14 -11 -2 -6 2 -13 8 -15 6 -3 11 13 13 38 3 55 6 59 42 44
35 -15 55 -48 56 -91 0 -79 34 -99 61 -37 l16 39 36 -21 c19 -11 37 -24 39
-29 2 -5 12 -18 22 -28 15 -15 23 -16 49 -7 28 9 35 7 72 -22 36 -29 39 -30
28 -9 -7 13 -23 35 -35 49 -47 51 -79 210 -43 210 7 0 6 5 -1 13 -14 18 -3 29
18 18 24 -13 62 5 54 25 -4 12 -14 14 -34 10 -35 -7 -35 -5 -7 50 23 47 38 56
38 25 0 -30 11 -51 26 -51 8 0 14 9 14 21 0 11 5 30 12 42 6 12 13 32 14 44 4
33 32 70 64 83 36 15 37 24 8 45 l-23 15 29 24 c20 15 25 25 18 30 -7 4 -12 2
-12 -4 0 -6 -4 -9 -8 -6 -5 3 -19 -6 -31 -20 -28 -32 -50 -21 -94 46 -17 27
-38 50 -45 50 -9 0 -10 -5 -2 -19z m113 -131 c23 0 22 -3 -13 -40 -17 -18 -33
-43 -36 -56 -3 -13 -7 -24 -8 -24 -2 0 -21 17 -43 38 -40 38 -40 39 -21 61 10
13 21 41 24 61 l6 38 38 -39 c20 -21 44 -39 53 -39z"/>
<path d="M3204 3235 c-4 -9 -2 -21 5 -28 13 -13 18 -9 23 17 4 24 -20 33 -28
11z"/>
<path d="M3290 3215 c-16 -19 -26 -95 -12 -95 5 0 29 22 51 49 33 40 38 50 25
55 -26 10 -51 7 -64 -9z"/>
<path d="M3100 3185 c0 -8 5 -15 10 -15 6 0 10 7 10 15 0 8 -4 15 -10 15 -5 0
-10 -7 -10 -15z"/>
<path d="M3790 3193 c-47 -8 -95 -26 -122 -46 -37 -28 -30 -31 16 -7 56 28
140 44 166 30 13 -7 20 -7 20 -1 0 11 -33 32 -47 30 -4 -1 -19 -4 -33 -6z"/>
<path d="M3696 3103 l-19 -26 27 5 c23 5 27 3 23 -13 -6 -20 8 -26 19 -8 3 6
1 16 -5 22 -6 6 -11 19 -11 29 0 25 -12 22 -34 -9z"/>
<path d="M3477 3093 c-14 -13 -6 -23 18 -23 16 0 25 6 25 15 0 15 -31 21 -43
8z"/>
<path d="M2687 3049 c-13 -8 -17 -22 -17 -52 1 -23 -2 -73 -6 -110 -7 -67 -6
-68 26 -102 66 -68 214 -105 292 -72 46 19 87 79 103 150 11 49 13 52 46 55
61 5 73 -13 74 -116 0 -75 4 -95 21 -118 27 -37 81 -64 156 -76 128 -22 209
14 244 110 10 26 27 57 38 70 19 21 19 25 5 50 -19 35 -64 56 -177 83 -72 17
-111 20 -169 16 -64 -5 -78 -3 -95 13 -24 22 -73 32 -115 24 -22 -4 -43 2 -84
24 -30 17 -78 37 -108 46 -61 18 -206 21 -234 5z m190 -45 c15 -3 43 -36 83
-97 33 -50 60 -97 60 -104 0 -14 -48 -53 -64 -53 -6 0 -26 26 -45 58 -19 31
-56 90 -83 130 -26 40 -48 74 -48 77 0 4 54 -2 97 -11z m564 -145 c16 -17 29
-38 29 -46 0 -8 16 -42 36 -76 33 -57 35 -62 18 -74 -10 -7 -32 -13 -48 -13
-29 0 -36 9 -102 120 l-72 120 55 0 c49 0 58 -4 84 -31z"/>
<path d="M4210 2820 c-46 -8 -120 -50 -120 -67 0 -9 18 0 46 21 42 32 50 35
93 29 89 -11 128 -49 109 -105 -11 -32 -71 -74 -118 -82 -93 -16 -125 -25
-136 -40 -22 -30 -34 -18 -34 35 0 31 -4 48 -10 44 -10 -6 -15 -155 -5 -155 3
0 20 17 39 38 32 35 41 39 116 50 91 13 147 47 170 102 31 74 -54 147 -150
130z"/>
<path d="M3087 2803 c-4 -3 -1 -16 7 -29 15 -22 16 -60 2 -83 -10 -15 -1 -25
13 -16 6 3 11 21 11 40 0 22 6 38 18 44 16 10 16 10 0 11 -9 0 -23 9 -31 20
-8 11 -17 17 -20 13z"/>
<path d="M1815 2760 c-12 -4 -26 -15 -33 -23 -11 -13 -6 -17 40 -25 78 -15
108 -20 108 -16 0 9 -24 54 -29 55 -3 1 -16 3 -27 4 -12 1 -25 5 -30 7 -5 3
-18 2 -29 -2z"/>
<path d="M1739 2729 l-24 -20 28 17 c15 9 27 18 27 20 0 8 -8 4 -31 -17z"/>
<path d="M2520 2709 c0 -18 2 -19 15 -9 8 7 15 16 15 21 0 5 -7 9 -15 9 -9 0
-15 -9 -15 -21z"/>
<path d="M1971 2511 c-8 -5 -10 -14 -5 -22 6 -11 5 -12 -7 -2 -11 9 -27 8 -68
-3 -29 -7 -59 -18 -66 -24 -14 -12 -27 -62 -14 -54 5 3 9 2 9 -3 0 -4 11 -9
25 -9 15 -1 22 2 18 9 -3 5 -1 7 5 4 14 -10 42 3 42 18 0 10 7 11 30 5 18 -5
30 -5 30 0 0 6 10 6 24 0 16 -6 30 -5 42 4 11 7 34 12 52 11 19 -1 32 3 32 10
0 13 -29 54 -30 42 0 -5 -7 -1 -16 8 -10 9 -20 13 -23 8 -7 -11 -27 -11 -37 0
-10 9 -26 9 -43 -2z"/>
<path d="M2150 2481 c0 -5 5 -13 10 -16 6 -3 10 -2 10 4 0 5 -4 13 -10 16 -5
3 -10 2 -10 -4z"/>
<path d="M3078 2480 c-57 -10 -68 -16 -68 -38 0 -29 -55 -52 -123 -52 -80 -1
-282 -25 -333 -40 -22 -7 -51 -20 -65 -31 l-24 -19 33 0 c19 0 31 -4 27 -10
-3 -5 -8 -19 -10 -29 -3 -15 1 -18 13 -15 15 5 15 4 0 -9 -20 -16 -24 -52 -7
-63 16 -9 31 10 34 43 1 15 7 39 13 53 6 14 13 32 15 41 6 17 67 30 200 44 84
8 184 -4 210 -26 l22 -18 -28 -23 c-25 -20 -27 -27 -18 -49 6 -17 19 -28 39
-32 21 -4 31 -14 36 -31 12 -46 55 -59 188 -54 105 4 120 6 142 27 34 32 50
100 51 216 l0 99 -40 12 c-45 14 -234 16 -307 4z m317 -31 c9 -9 8 -31 -3
-134 -16 -152 -13 -149 -179 -161 -74 -6 -97 -4 -115 8 -23 15 -48 81 -54 147
-4 38 -19 61 -41 61 -26 0 48 74 81 82 38 8 302 5 311 -3z m-370 -199 c3 -5
-1 -10 -9 -10 -8 0 -18 5 -21 10 -3 6 1 10 9 10 8 0 18 -4 21 -10z"/>
<path d="M3077 2373 c-7 -6 37 -33 55 -33 10 0 38 25 38 34 0 8 -85 7 -93 -1z"/>
<path d="M2088 2288 c18 -18 14 -32 -4 -17 -15 12 -16 11 -10 -6 5 -17 1 -21
-18 -23 -14 -1 -27 4 -29 11 -2 6 -2 2 0 -11 3 -20 1 -22 -16 -13 -16 9 -21 7
-26 -9 -7 -23 -16 -25 -33 -8 -9 9 -15 8 -27 -8 -31 -41 6 -53 73 -23 24 11
46 18 49 15 3 -3 23 4 44 14 21 11 54 20 73 20 19 0 41 7 49 15 8 8 17 11 21
8 3 -4 6 -1 6 6 0 7 5 9 13 4 15 -10 47 -15 47 -7 0 13 -22 44 -31 44 -6 0 -7
-6 -3 -12 5 -9 2 -9 -9 1 -13 10 -17 10 -17 1 0 -10 -3 -10 -15 0 -11 9 -15 9
-15 1 0 -7 -4 -10 -9 -6 -5 3 -35 7 -67 10 -43 3 -54 1 -46 -7z"/>
<path d="M2718 2218 c-7 -18 2 -39 13 -32 12 7 12 44 0 44 -5 0 -11 -6 -13
-12z"/>
<path d="M2962 2187 c-5 -6 -8 -23 -7 -37 2 -14 4 -29 4 -34 2 -22 31 20 31
45 0 32 -13 45 -28 26z"/>
<path d="M2565 2140 c-8 -13 21 -80 35 -80 11 0 9 15 -11 68 -9 24 -15 27 -24
12z"/>
<path d="M2380 2091 c0 -6 4 -13 10 -16 6 -3 7 1 4 9 -7 18 -14 21 -14 7z"/>
<path d="M2410 2085 c0 -8 4 -15 10 -15 5 0 7 7 4 15 -4 8 -8 15 -10 15 -2 0
-4 -7 -4 -15z"/>
<path d="M2520 2085 c0 -9 5 -26 11 -37 6 -12 17 -55 23 -96 15 -97 36 -109
36 -20 -1 76 -28 162 -52 166 -11 2 -18 -3 -18 -13z"/>
<path d="M2269 2059 c16 -17 25 -20 28 -11 3 6 10 9 16 5 7 -3 8 -2 4 2 -4 5
-13 10 -20 11 -7 1 -21 5 -32 9 -18 7 -17 5 4 -16z"/>
<path d="M2915 2060 c-61 -5 -137 -41 -103 -48 10 -2 26 2 37 7 11 6 44 11 75
11 36 0 60 5 70 16 9 8 16 16 16 18 0 3 -33 2 -95 -4z"/>
<path d="M2186 2035 c4 -8 10 -15 15 -15 4 0 6 7 3 15 -4 8 -10 15 -15 15 -4
0 -6 -7 -3 -15z"/>
<path d="M2774 1995 c-4 -8 -10 -13 -14 -10 -12 7 -113 -25 -130 -42 -13 -13
-13 -15 5 -10 11 4 41 11 68 18 26 6 47 16 47 22 0 6 3 8 6 4 3 -3 19 -1 36 5
22 8 26 13 16 19 -19 13 -28 11 -34 -6z"/>
<path d="M2912 1945 c9 -9 68 -12 74 -4 3 5 -14 9 -37 9 -23 0 -40 -2 -37 -5z"/>
<path d="M4117 1899 c-7 -53 -3 -69 14 -69 11 0 12 90 0 108 -5 9 -10 -5 -14
-39z"/>
<path d="M3550 1910 c-23 -5 12 -8 104 -9 77 0 137 1 135 3 -9 8 -206 14 -239
6z"/>
<path d="M3092 1899 c-111 -3 -205 -9 -209 -13 -9 -9 520 5 530 14 9 8 -10 8
-321 -1z"/>
<path d="M2706 1793 c-53 -105 -197 -518 -212 -610 -8 -51 11 -60 21 -10 11
53 84 286 115 367 16 41 38 100 48 130 11 31 29 75 41 98 24 47 25 52 11 52
-5 0 -16 -12 -24 -27z"/>
<path d="M3236 1572 c-3 -6 2 -9 12 -8 12 1 17 -6 17 -26 -1 -16 3 -24 8 -19
14 14 4 55 -15 59 -9 2 -19 -1 -22 -6z"/>
<path d="M3327 1563 c-4 -3 -7 -11 -7 -17 0 -7 3 -7 8 0 4 7 16 14 27 17 19 5
19 5 -1 6 -11 0 -24 -2 -27 -6z"/>
<path d="M3397 1523 c-14 -13 -6 -25 8 -13 21 17 31 5 14 -17 -13 -16 -12 -17
4 -4 9 7 17 20 17 27 0 14 -31 19 -43 7z"/>
<path d="M3148 1488 c6 -6 18 -8 28 -6 14 3 12 5 -9 10 -19 3 -25 2 -19 -4z"/>
<path d="M3193 1454 c-32 -19 -43 -32 -43 -50 0 -13 4 -24 8 -24 5 0 8 10 8
23 -1 16 10 28 44 45 54 27 76 28 118 2 36 -22 43 -56 12 -63 -17 -4 -16 -4 2
-3 35 2 37 48 2 75 -37 29 -97 27 -151 -5z"/>
<path d="M3193 1373 c9 -2 25 -2 35 0 9 3 1 5 -18 5 -19 0 -27 -2 -17 -5z"/>
</g>
</svg>
