<?xml version="1.0" standalone="no"?>
<!DOCTYPE svg PUBLIC "-//W3C//DTD SVG 20010904//EN"
 "http://www.w3.org/TR/2001/REC-SVG-20010904/DTD/svg10.dtd">
<svg version="1.0" xmlns="http://www.w3.org/2000/svg"
 width="982.000000pt" height="254.000000pt" viewBox="0 0 982.000000 254.000000"
 preserveAspectRatio="xMidYMid meet">

<g transform="translate(0.000000,254.000000) scale(0.100000,-0.100000)"
fill="#000000" stroke="none">
<path d="M565 2161 c-53 -25 -101 -77 -115 -126 -8 -29 -10 -256 -8 -817 l3
-776 31 -44 c17 -23 49 -53 70 -65 l39 -23 850 0 c814 0 851 1 880 19 42 26
72 56 92 94 17 30 18 86 18 812 0 429 -3 792 -8 807 -11 40 -66 98 -112 119
-38 17 -89 19 -870 19 -787 0 -832 -1 -870 -19z m1085 -411 c49 -13 109 -66
131 -114 27 -60 25 -153 -4 -197 -50 -74 -155 -112 -255 -91 -30 6 -72 23 -92
36 -40 26 -80 98 -80 141 0 84 55 176 129 215 40 21 115 26 171 10z m-273 -48
c9 -6 6 -18 -14 -47 -60 -88 -64 -175 -12 -253 33 -49 37 -67 12 -57 -10 4
-25 9 -33 13 -8 3 -3 -8 11 -24 27 -29 60 -89 73 -131 7 -21 4 -23 -34 -23
-33 0 -48 -6 -71 -29 -26 -27 -29 -36 -29 -96 0 -104 24 -134 108 -135 60 0
64 -8 33 -76 -39 -85 -117 -119 -271 -118 -88 0 -114 4 -158 23 -59 27 -102
79 -121 146 -27 99 -1 271 57 378 35 65 110 131 166 147 39 11 44 15 36 31
-16 29 -11 107 9 147 24 46 66 86 106 100 36 12 115 15 132 4z m489 -344 c96
-91 140 -216 132 -379 -5 -108 -27 -162 -80 -202 -54 -40 -104 -52 -219 -51
-95 0 -111 3 -162 28 -31 15 -57 32 -57 37 0 5 8 26 19 47 10 20 21 54 24 75
l6 37 -80 0 c-44 0 -89 4 -99 10 -25 13 -43 71 -34 115 10 53 44 75 115 75 33
0 59 2 59 5 0 3 -8 17 -17 31 -14 22 -15 31 -3 62 20 57 27 62 94 62 79 0 144
22 193 65 21 19 42 34 46 35 5 0 33 -23 63 -52z"/>
<path d="M1384 1537 c-9 -25 0 -62 16 -62 10 0 15 10 15 34 0 36 -21 54 -31
28z"/>
<path d="M1530 1490 c-13 -25 -5 -56 16 -64 24 -9 54 12 54 37 0 46 -50 64
-70 27z"/>
<path d="M3360 1635 c0 -118 -4 -215 -8 -215 -5 0 -17 10 -28 21 -10 12 -41
32 -69 45 -142 67 -328 -13 -379 -163 -20 -60 -20 -166 0 -226 51 -150 231
-228 376 -163 29 13 62 33 72 45 28 31 36 26 36 -19 l0 -40 50 0 50 0 0 465 0
465 -50 0 -50 0 0 -215z m-104 -244 c101 -62 130 -218 57 -309 -44 -54 -85
-75 -147 -74 -107 1 -182 69 -193 174 -9 92 35 185 101 214 47 20 145 18 182
-5z"/>
<path d="M4833 1843 l-33 -4 0 -460 0 -460 53 3 52 3 0 460 c0 453 0 460 -20
461 -11 1 -35 -1 -52 -3z"/>
<path d="M6453 1782 c-24 -4 -63 -46 -63 -68 0 -43 44 -84 90 -84 30 0 73 58
65 89 -12 48 -45 71 -92 63z"/>
<path d="M7360 1782 c-30 -9 -60 -46 -60 -72 0 -34 44 -80 77 -80 29 0 83 50
83 78 0 44 -58 87 -100 74z"/>
<path d="M4335 1486 c-108 -51 -140 -139 -84 -232 21 -34 61 -55 164 -84 112
-32 146 -71 111 -125 -35 -54 -135 -54 -214 0 l-35 24 -39 -32 -40 -32 40 -36
c102 -90 319 -72 390 32 20 29 23 44 20 96 -5 84 -35 116 -133 144 -160 47
-186 65 -171 122 13 52 132 63 181 17 l24 -23 41 27 c22 14 40 32 40 40 0 37
-110 86 -193 86 -34 0 -69 -8 -102 -24z"/>
<path d="M5245 1495 c-88 -33 -154 -111 -181 -216 -34 -132 30 -280 149 -341
29 -15 66 -23 122 -26 96 -5 170 18 231 73 l39 35 -35 30 c-43 36 -47 36 -71
6 -28 -36 -99 -60 -159 -54 -83 8 -170 82 -170 146 l0 22 231 0 232 0 -5 68
c-8 115 -59 201 -143 245 -52 27 -182 33 -240 12z m199 -93 c37 -22 64 -66 68
-112 l3 -35 -168 -3 c-182 -3 -187 -1 -173 53 9 35 78 102 118 114 43 13 114
5 152 -17z"/>
<path d="M7763 1489 c-107 -41 -174 -136 -181 -259 -5 -99 22 -175 87 -240 57
-57 119 -80 213 -80 80 0 174 37 221 87 l28 30 -42 27 -41 28 -32 -29 c-17
-16 -44 -35 -59 -41 -57 -24 -162 -7 -209 35 -21 18 -57 88 -58 111 0 9 54 12
236 12 l235 0 -6 58 c-4 31 -11 73 -16 92 -19 77 -89 152 -168 178 -52 18
-149 14 -208 -9z m162 -70 c51 -14 92 -53 107 -100 20 -68 18 -69 -166 -69
-105 0 -167 4 -171 11 -21 32 44 120 110 150 47 22 66 23 120 8z"/>
<path d="M3570 1494 c0 -5 44 -113 172 -425 l64 -155 -27 -68 c-15 -38 -38
-79 -51 -93 -20 -22 -29 -24 -80 -21 l-57 4 -7 -44 c-5 -32 -3 -47 7 -53 26
-17 127 -10 173 11 52 25 76 65 140 232 93 240 205 525 225 571 l20 47 -58 0
-59 0 -42 -117 c-24 -65 -59 -164 -80 -221 -20 -57 -40 -103 -45 -103 -8 -1
-53 109 -145 354 l-33 87 -58 0 c-33 0 -59 -3 -59 -6z"/>
<path d="M5736 1488 c4 -7 35 -49 68 -92 34 -43 76 -99 94 -123 l33 -45 -103
-134 c-57 -75 -109 -144 -117 -155 -13 -18 -11 -19 51 -19 l64 0 65 93 c37 50
74 104 84 120 9 15 20 27 24 27 4 0 45 -54 91 -120 l84 -120 64 0 c52 0 63 3
59 14 -3 8 -53 76 -111 151 -59 74 -106 139 -106 143 0 5 39 60 86 123 120
160 117 149 42 149 l-63 -1 -65 -96 c-36 -53 -69 -98 -75 -100 -5 -1 -39 41
-75 95 l-65 97 -68 3 c-54 2 -67 0 -61 -10z"/>
<path d="M6420 1210 l0 -290 50 0 50 0 0 290 0 290 -50 0 -50 0 0 -290z"/>
<path d="M6640 1491 c0 -9 136 -350 170 -426 10 -22 28 -64 40 -92 l22 -53 53
0 c60 0 64 3 93 80 110 282 165 420 177 448 8 18 15 37 15 42 0 6 -24 10 -54
10 l-54 0 -47 -127 c-76 -208 -119 -313 -127 -313 -4 0 -8 4 -8 10 0 5 -37
104 -82 220 l-81 210 -59 0 c-32 0 -58 -4 -58 -9z"/>
<path d="M7330 1210 l0 -290 50 0 50 0 0 290 0 290 -50 0 -50 0 0 -290z"/>
<path d="M8230 1490 c0 -5 6 -27 14 -47 8 -21 49 -147 92 -280 l79 -243 57 0
57 0 61 185 c33 102 60 191 60 198 0 7 6 21 14 32 12 17 14 15 29 -26 48 -138
126 -357 132 -372 6 -15 17 -17 58 -15 32 2 53 8 58 18 10 19 179 539 179 551
0 5 -25 9 -55 9 l-54 0 -11 -42 c-9 -34 -79 -277 -106 -371 -3 -9 -9 -15 -13
-13 -4 3 -38 100 -77 215 l-69 211 -56 0 -56 0 -67 -203 c-36 -112 -66 -209
-66 -215 0 -7 -4 -12 -9 -12 -4 0 -25 57 -46 128 -21 70 -48 160 -61 201 -13
40 -24 80 -24 87 0 10 -16 14 -60 14 -33 0 -60 -4 -60 -10z"/>
</g>
</svg>
